<mxfile host="65bd71144e" modified="2020-11-10T09:27:52.744Z" agent="5.0 (Macintosh; Intel Mac OS X 10_15_7) AppleWebKit/537.36 (KHTML, like Gecko) Code/1.51.0 Chrome/83.0.4103.122 Electron/9.3.3 Safari/537.36" etag="zCftPi5Gm3LG3eBYwZpn" version="13.6.5">
    <diagram id="3rKG2UR9vp7muh6gZ78t" name="Page-1">
        <mxGraphModel dx="955" dy="526" grid="1" gridSize="10" guides="1" tooltips="1" connect="1" arrows="1" fold="1" page="1" pageScale="1" pageWidth="827" pageHeight="1169" math="0" shadow="0">
            <root>
                <mxCell id="0"/>
                <mxCell id="1" parent="0"/>
                <mxCell id="C2Og-RwH_CfqTQVk7Jo7-13" style="edgeStyle=orthogonalEdgeStyle;rounded=0;orthogonalLoop=1;jettySize=auto;html=1;exitX=0;exitY=0.5;exitDx=0;exitDy=0;entryX=0;entryY=0.5;entryDx=0;entryDy=0;" parent="1" source="C2Og-RwH_CfqTQVk7Jo7-1" target="C2Og-RwH_CfqTQVk7Jo7-3" edge="1">
                    <mxGeometry relative="1" as="geometry">
                        <Array as="points">
                            <mxPoint x="160" y="200"/>
                            <mxPoint x="160" y="520"/>
                        </Array>
                    </mxGeometry>
                </mxCell>
                <mxCell id="C2Og-RwH_CfqTQVk7Jo7-14" style="edgeStyle=orthogonalEdgeStyle;rounded=0;orthogonalLoop=1;jettySize=auto;html=1;exitX=1;exitY=0.5;exitDx=0;exitDy=0;entryX=1;entryY=0.5;entryDx=0;entryDy=0;" parent="1" source="C2Og-RwH_CfqTQVk7Jo7-1" target="C2Og-RwH_CfqTQVk7Jo7-5" edge="1">
                    <mxGeometry relative="1" as="geometry">
                        <Array as="points">
                            <mxPoint x="640" y="200"/>
                            <mxPoint x="640" y="680"/>
                        </Array>
                    </mxGeometry>
                </mxCell>
                <mxCell id="C2Og-RwH_CfqTQVk7Jo7-28" value="props" style="edgeLabel;html=1;align=center;verticalAlign=middle;resizable=0;points=[];" parent="C2Og-RwH_CfqTQVk7Jo7-14" vertex="1" connectable="0">
                    <mxGeometry x="0.2194" y="1" relative="1" as="geometry">
                        <mxPoint as="offset"/>
                    </mxGeometry>
                </mxCell>
                <mxCell id="C2Og-RwH_CfqTQVk7Jo7-15" style="edgeStyle=orthogonalEdgeStyle;rounded=0;orthogonalLoop=1;jettySize=auto;html=1;entryX=0;entryY=0.5;entryDx=0;entryDy=0;exitX=0;exitY=0.5;exitDx=0;exitDy=0;" parent="1" source="C2Og-RwH_CfqTQVk7Jo7-1" target="C2Og-RwH_CfqTQVk7Jo7-7" edge="1">
                    <mxGeometry relative="1" as="geometry">
                        <mxPoint x="400" y="240" as="sourcePoint"/>
                        <Array as="points">
                            <mxPoint x="160" y="200"/>
                            <mxPoint x="160" y="680"/>
                        </Array>
                    </mxGeometry>
                </mxCell>
                <mxCell id="C2Og-RwH_CfqTQVk7Jo7-29" value="props" style="edgeLabel;html=1;align=center;verticalAlign=middle;resizable=0;points=[];" parent="C2Og-RwH_CfqTQVk7Jo7-15" vertex="1" connectable="0">
                    <mxGeometry x="0.2222" y="-1" relative="1" as="geometry">
                        <mxPoint as="offset"/>
                    </mxGeometry>
                </mxCell>
                <mxCell id="C2Og-RwH_CfqTQVk7Jo7-1" value="State1" style="ellipse;whiteSpace=wrap;html=1;aspect=fixed;fillColor=#f8cecc;strokeColor=#b85450;" parent="1" vertex="1">
                    <mxGeometry x="360" y="160" width="80" height="80" as="geometry"/>
                </mxCell>
                <mxCell id="C2Og-RwH_CfqTQVk7Jo7-12" style="edgeStyle=orthogonalEdgeStyle;rounded=0;orthogonalLoop=1;jettySize=auto;html=1;exitX=0.5;exitY=0;exitDx=0;exitDy=0;entryX=0.5;entryY=1;entryDx=0;entryDy=0;dashed=1;" parent="1" source="C2Og-RwH_CfqTQVk7Jo7-2" target="C2Og-RwH_CfqTQVk7Jo7-1" edge="1">
                    <mxGeometry relative="1" as="geometry"/>
                </mxCell>
                <mxCell id="C2Og-RwH_CfqTQVk7Jo7-27" value="update" style="edgeLabel;html=1;align=center;verticalAlign=middle;resizable=0;points=[];" parent="C2Og-RwH_CfqTQVk7Jo7-12" vertex="1" connectable="0">
                    <mxGeometry x="0.05" y="-1" relative="1" as="geometry">
                        <mxPoint as="offset"/>
                    </mxGeometry>
                </mxCell>
                <mxCell id="C2Og-RwH_CfqTQVk7Jo7-22" style="edgeStyle=orthogonalEdgeStyle;rounded=0;orthogonalLoop=1;jettySize=auto;html=1;exitX=0.5;exitY=1;exitDx=0;exitDy=0;entryX=0.5;entryY=0;entryDx=0;entryDy=0;dashed=1;" parent="1" source="C2Og-RwH_CfqTQVk7Jo7-2" target="C2Og-RwH_CfqTQVk7Jo7-4" edge="1">
                    <mxGeometry relative="1" as="geometry"/>
                </mxCell>
                <mxCell id="C2Og-RwH_CfqTQVk7Jo7-2" value="Reducer" style="ellipse;whiteSpace=wrap;html=1;aspect=fixed;fillColor=#fff2cc;strokeColor=#d6b656;" parent="1" vertex="1">
                    <mxGeometry x="360" y="320" width="80" height="80" as="geometry"/>
                </mxCell>
                <mxCell id="C2Og-RwH_CfqTQVk7Jo7-8" style="edgeStyle=orthogonalEdgeStyle;rounded=0;orthogonalLoop=1;jettySize=auto;html=1;exitX=0.5;exitY=0;exitDx=0;exitDy=0;entryX=0;entryY=0.5;entryDx=0;entryDy=0;dashed=1;" parent="1" source="C2Og-RwH_CfqTQVk7Jo7-3" target="C2Og-RwH_CfqTQVk7Jo7-2" edge="1">
                    <mxGeometry relative="1" as="geometry"/>
                </mxCell>
                <mxCell id="C2Og-RwH_CfqTQVk7Jo7-26" value="action" style="edgeLabel;html=1;align=center;verticalAlign=middle;resizable=0;points=[];" parent="C2Og-RwH_CfqTQVk7Jo7-8" vertex="1" connectable="0">
                    <mxGeometry x="-0.6583" y="2" relative="1" as="geometry">
                        <mxPoint as="offset"/>
                    </mxGeometry>
                </mxCell>
                <mxCell id="C2Og-RwH_CfqTQVk7Jo7-3" value="Resource" style="ellipse;whiteSpace=wrap;html=1;aspect=fixed;fillColor=#d5e8d4;strokeColor=#82b366;" parent="1" vertex="1">
                    <mxGeometry x="200" y="480" width="80" height="80" as="geometry"/>
                </mxCell>
                <mxCell id="C2Og-RwH_CfqTQVk7Jo7-10" style="edgeStyle=orthogonalEdgeStyle;rounded=0;orthogonalLoop=1;jettySize=auto;html=1;exitX=0.5;exitY=0;exitDx=0;exitDy=0;dashed=1;" parent="1" source="C2Og-RwH_CfqTQVk7Jo7-4" edge="1">
                    <mxGeometry relative="1" as="geometry">
                        <mxPoint x="400" y="400" as="targetPoint"/>
                        <Array as="points">
                            <mxPoint x="400" y="420"/>
                            <mxPoint x="400" y="420"/>
                        </Array>
                    </mxGeometry>
                </mxCell>
                <mxCell id="C2Og-RwH_CfqTQVk7Jo7-24" value="action" style="edgeLabel;html=1;align=center;verticalAlign=middle;resizable=0;points=[];" parent="C2Og-RwH_CfqTQVk7Jo7-10" vertex="1" connectable="0">
                    <mxGeometry x="0.5" y="-19" relative="1" as="geometry">
                        <mxPoint x="-18" y="19" as="offset"/>
                    </mxGeometry>
                </mxCell>
                <mxCell id="C2Og-RwH_CfqTQVk7Jo7-18" style="edgeStyle=orthogonalEdgeStyle;rounded=0;orthogonalLoop=1;jettySize=auto;html=1;exitX=0.5;exitY=1;exitDx=0;exitDy=0;entryX=0.5;entryY=1;entryDx=0;entryDy=0;" parent="1" source="C2Og-RwH_CfqTQVk7Jo7-4" target="C2Og-RwH_CfqTQVk7Jo7-4" edge="1">
                    <mxGeometry relative="1" as="geometry"/>
                </mxCell>
                <mxCell id="C2Og-RwH_CfqTQVk7Jo7-20" style="edgeStyle=orthogonalEdgeStyle;rounded=0;orthogonalLoop=1;jettySize=auto;html=1;exitX=0.5;exitY=1;exitDx=0;exitDy=0;entryX=0.5;entryY=0;entryDx=0;entryDy=0;" parent="1" source="C2Og-RwH_CfqTQVk7Jo7-4" target="C2Og-RwH_CfqTQVk7Jo7-6" edge="1">
                    <mxGeometry relative="1" as="geometry"/>
                </mxCell>
                <mxCell id="C2Og-RwH_CfqTQVk7Jo7-4" value="VisualEd" style="ellipse;whiteSpace=wrap;html=1;aspect=fixed;fillColor=#d5e8d4;strokeColor=#82b366;" parent="1" vertex="1">
                    <mxGeometry x="360" y="480" width="80" height="80" as="geometry"/>
                </mxCell>
                <mxCell id="C2Og-RwH_CfqTQVk7Jo7-11" style="edgeStyle=orthogonalEdgeStyle;rounded=0;orthogonalLoop=1;jettySize=auto;html=1;exitX=0.5;exitY=0;exitDx=0;exitDy=0;entryX=1;entryY=0.5;entryDx=0;entryDy=0;dashed=1;" parent="1" source="C2Og-RwH_CfqTQVk7Jo7-5" target="C2Og-RwH_CfqTQVk7Jo7-2" edge="1">
                    <mxGeometry relative="1" as="geometry">
                        <mxPoint x="400" y="400" as="targetPoint"/>
                    </mxGeometry>
                </mxCell>
                <mxCell id="C2Og-RwH_CfqTQVk7Jo7-23" value="action" style="edgeLabel;html=1;align=center;verticalAlign=middle;resizable=0;points=[];" parent="C2Og-RwH_CfqTQVk7Jo7-11" vertex="1" connectable="0">
                    <mxGeometry x="-0.1" y="1" relative="1" as="geometry">
                        <mxPoint x="1" y="-20" as="offset"/>
                    </mxGeometry>
                </mxCell>
                <mxCell id="C2Og-RwH_CfqTQVk7Jo7-5" value="Property" style="ellipse;whiteSpace=wrap;html=1;aspect=fixed;fillColor=#d5e8d4;strokeColor=#82b366;" parent="1" vertex="1">
                    <mxGeometry x="520" y="640" width="80" height="80" as="geometry"/>
                </mxCell>
                <mxCell id="C2Og-RwH_CfqTQVk7Jo7-21" style="edgeStyle=orthogonalEdgeStyle;rounded=0;orthogonalLoop=1;jettySize=auto;html=1;exitX=0.5;exitY=0;exitDx=0;exitDy=0;entryX=0.5;entryY=1;entryDx=0;entryDy=0;" parent="1" source="C2Og-RwH_CfqTQVk7Jo7-6" target="C2Og-RwH_CfqTQVk7Jo7-4" edge="1">
                    <mxGeometry relative="1" as="geometry"/>
                </mxCell>
                <mxCell id="C2Og-RwH_CfqTQVk7Jo7-30" value="model" style="edgeLabel;html=1;align=center;verticalAlign=middle;resizable=0;points=[];" parent="C2Og-RwH_CfqTQVk7Jo7-21" vertex="1" connectable="0">
                    <mxGeometry x="0.05" relative="1" as="geometry">
                        <mxPoint as="offset"/>
                    </mxGeometry>
                </mxCell>
                <mxCell id="C2Og-RwH_CfqTQVk7Jo7-6" value="State2" style="ellipse;whiteSpace=wrap;html=1;aspect=fixed;fillColor=#f8cecc;strokeColor=#b85450;" parent="1" vertex="1">
                    <mxGeometry x="360" y="640" width="80" height="80" as="geometry"/>
                </mxCell>
                <mxCell id="C2Og-RwH_CfqTQVk7Jo7-9" style="edgeStyle=orthogonalEdgeStyle;rounded=0;orthogonalLoop=1;jettySize=auto;html=1;exitX=0.5;exitY=0;exitDx=0;exitDy=0;entryX=0;entryY=0.5;entryDx=0;entryDy=0;dashed=1;" parent="1" source="C2Og-RwH_CfqTQVk7Jo7-7" target="C2Og-RwH_CfqTQVk7Jo7-2" edge="1">
                    <mxGeometry relative="1" as="geometry">
                        <mxPoint x="400" y="400" as="targetPoint"/>
                        <Array as="points">
                            <mxPoint x="240" y="600"/>
                            <mxPoint x="320" y="600"/>
                            <mxPoint x="320" y="360"/>
                        </Array>
                    </mxGeometry>
                </mxCell>
                <mxCell id="C2Og-RwH_CfqTQVk7Jo7-25" value="action" style="edgeLabel;html=1;align=center;verticalAlign=middle;resizable=0;points=[];" parent="C2Og-RwH_CfqTQVk7Jo7-9" vertex="1" connectable="0">
                    <mxGeometry x="0.405" relative="1" as="geometry">
                        <mxPoint as="offset"/>
                    </mxGeometry>
                </mxCell>
                <mxCell id="C2Og-RwH_CfqTQVk7Jo7-7" value="Timeline" style="ellipse;whiteSpace=wrap;html=1;aspect=fixed;fillColor=#d5e8d4;strokeColor=#82b366;" parent="1" vertex="1">
                    <mxGeometry x="200" y="640" width="80" height="80" as="geometry"/>
                </mxCell>
            </root>
        </mxGraphModel>
    </diagram>
</mxfile>